<?xml version="1.0" encoding="UTF-8"?>
<svg version="1.1" xmlns="http://www.w3.org/2000/svg" width="96" height="94">
<path d="M0 0 C1.32 0 2.64 0 4 0 C4 3.3 4 6.6 4 10 C4.94842773 9.98952637 5.89685547 9.97905273 6.87402344 9.96826172 C10.40008991 9.93413292 13.92598029 9.90907832 17.45214844 9.89013672 C18.97691623 9.88009256 20.50166484 9.86645469 22.02636719 9.84912109 C24.22075138 9.82480262 26.41488042 9.81350111 28.609375 9.8046875 C29.92905273 9.79421387 31.24873047 9.78374023 32.60839844 9.77294922 C35.77561118 9.98497829 37.442149 10.19238187 40 12 C42.45499449 15.68249173 42.25774914 17.54308096 42.265625 21.93359375 C42.26849518 22.94511253 42.26849518 22.94511253 42.27142334 23.97706604 C42.27278282 25.40178806 42.2691029 26.82652257 42.26074219 28.2512207 C42.25005538 30.426229 42.26063625 32.60040826 42.2734375 34.77539062 C42.27211554 36.16146015 42.26955238 37.54752916 42.265625 38.93359375 C42.26336914 40.19228271 42.26111328 41.45097168 42.25878906 42.74780273 C42.01280352 45.83909844 41.81628479 47.52112359 40 50 C36.38993268 52.76691214 32.00649392 52.32346275 27.65625 52.3359375 C26.44708923 52.3459227 26.44708923 52.3459227 25.21350098 52.35610962 C23.51231157 52.36621663 21.81108268 52.37092724 20.10986328 52.37060547 C17.50877741 52.37498522 14.9093803 52.41134083 12.30859375 52.44921875 C10.65365162 52.45508606 8.99870146 52.45905603 7.34375 52.4609375 C6.56761353 52.47530853 5.79147705 52.48967957 4.99182129 52.50448608 C1.41165445 52.474207 -0.58585011 52.32064544 -3.45898438 50.09619141 C-7.21862923 44.98207373 -6.29922363 38.98884558 -6.35009766 32.87915039 C-6.36664004 31.42325842 -6.39390836 29.9674471 -6.43212891 28.51196289 C-6.48708123 26.40728877 -6.50879616 24.30451493 -6.5234375 22.19921875 C-6.54325684 20.93940186 -6.56307617 19.67958496 -6.58349609 18.3815918 C-5.84948765 14.12772112 -4.17520465 12.80326709 -1 10 C-0.19904976 7.35990852 -0.19904976 7.35990852 -0.1875 4.6875 C-0.13980469 3.80449219 -0.09210937 2.92148437 -0.04296875 2.01171875 C-0.02878906 1.34785156 -0.01460937 0.68398438 0 0 Z " fill="#172E3C" transform="translate(30,17)"/>
<path d="M0 0 C1.32 0 2.64 0 4 0 C4 3.3 4 6.6 4 10 C4.94842773 9.98952637 5.89685547 9.97905273 6.87402344 9.96826172 C10.40008991 9.93413292 13.92598029 9.90907832 17.45214844 9.89013672 C18.97691623 9.88009256 20.50166484 9.86645469 22.02636719 9.84912109 C24.22075138 9.82480262 26.41488042 9.81350111 28.609375 9.8046875 C29.92905273 9.79421387 31.24873047 9.78374023 32.60839844 9.77294922 C35.77561118 9.98497829 37.442149 10.19238187 40 12 C42.45499449 15.68249173 42.25774914 17.54308096 42.265625 21.93359375 C42.26849518 22.94511253 42.26849518 22.94511253 42.27142334 23.97706604 C42.27278282 25.40178806 42.2691029 26.82652257 42.26074219 28.2512207 C42.25005538 30.426229 42.26063625 32.60040826 42.2734375 34.77539062 C42.27211554 36.16146015 42.26955238 37.54752916 42.265625 38.93359375 C42.26336914 40.19228271 42.26111328 41.45097168 42.25878906 42.74780273 C42.01280352 45.83909844 41.81628479 47.52112359 40 50 C36.38993268 52.76691214 32.00649392 52.32346275 27.65625 52.3359375 C26.44708923 52.3459227 26.44708923 52.3459227 25.21350098 52.35610962 C23.51231157 52.36621663 21.81108268 52.37092724 20.10986328 52.37060547 C17.50877741 52.37498522 14.9093803 52.41134083 12.30859375 52.44921875 C10.65365162 52.45508606 8.99870146 52.45905603 7.34375 52.4609375 C6.56761353 52.47530853 5.79147705 52.48967957 4.99182129 52.50448608 C1.41165445 52.474207 -0.58585011 52.32064544 -3.45898438 50.09619141 C-7.21862923 44.98207373 -6.29922363 38.98884558 -6.35009766 32.87915039 C-6.36664004 31.42325842 -6.39390836 29.9674471 -6.43212891 28.51196289 C-6.48708123 26.40728877 -6.50879616 24.30451493 -6.5234375 22.19921875 C-6.54325684 20.93940186 -6.56307617 19.67958496 -6.58349609 18.3815918 C-5.84948765 14.12772112 -4.17520465 12.80326709 -1 10 C-0.19904976 7.35990852 -0.19904976 7.35990852 -0.1875 4.6875 C-0.13980469 3.80449219 -0.09210937 2.92148437 -0.04296875 2.01171875 C-0.02878906 1.34785156 -0.01460937 0.68398438 0 0 Z M-1.97900391 14.10302734 C-3.53486085 16.99375151 -3.38939528 19.48446628 -3.3984375 22.75 C-3.40130768 23.40452148 -3.40417786 24.05904297 -3.40713501 24.73339844 C-3.40917368 26.11524319 -3.40365746 27.49711693 -3.39111328 28.87890625 C-3.37505436 30.9928445 -3.39096601 33.10487113 -3.41015625 35.21875 C-3.40817378 36.56250422 -3.40433002 37.90625724 -3.3984375 39.25 C-3.39505371 40.47203125 -3.39166992 41.6940625 -3.38818359 42.953125 C-3.19723963 45.90539526 -3.19723963 45.90539526 -1.97900391 47.89697266 C1.20425938 49.67121193 4.51256348 49.4267076 8.0625 49.3984375 C8.85019775 49.40130768 9.63789551 49.40417786 10.44946289 49.40713501 C12.11377685 49.40917522 13.77811481 49.40364832 15.44238281 49.39111328 C17.99077947 49.37505809 20.53759021 49.39096244 23.0859375 49.41015625 C24.7031285 49.40817381 26.32031852 49.40433011 27.9375 49.3984375 C29.08134155 49.40754654 29.08134155 49.40754654 30.24829102 49.4168396 C33.12608148 49.37855549 35.43272456 49.31617943 37.97900391 47.89697266 C39.53486085 45.00624849 39.38939528 42.51553372 39.3984375 39.25 C39.40274277 38.26821777 39.40274277 38.26821777 39.40713501 37.26660156 C39.40917368 35.88475681 39.40365746 34.50288307 39.39111328 33.12109375 C39.37505436 31.0071555 39.39096601 28.89512887 39.41015625 26.78125 C39.40817378 25.43749578 39.40433002 24.09374276 39.3984375 22.75 C39.39505371 21.52796875 39.39166992 20.3059375 39.38818359 19.046875 C39.19723963 16.09460474 39.19723963 16.09460474 37.97900391 14.10302734 C34.79574062 12.32878807 31.48743652 12.5732924 27.9375 12.6015625 C27.14980225 12.59869232 26.36210449 12.59582214 25.55053711 12.59286499 C23.88622315 12.59082478 22.22188519 12.59635168 20.55761719 12.60888672 C18.00922053 12.62494191 15.46240979 12.60903756 12.9140625 12.58984375 C11.2968715 12.59182619 9.67968148 12.59566989 8.0625 12.6015625 C7.29993896 12.59548981 6.53737793 12.58941711 5.75170898 12.5831604 C2.87391852 12.62144451 0.56727544 12.68382057 -1.97900391 14.10302734 Z " fill="#5ECCEF" transform="translate(30,17)"/>
<path d="M0 0 C1.32 0.33 2.64 0.66 4 1 C4 3.64 4 6.28 4 9 C2.68 9.33 1.36 9.66 0 10 C0 6.7 0 3.4 0 0 Z " fill="#5BC6E9" transform="translate(56,43)"/>
<path d="M0 0 C0.99 0 1.98 0 3 0 C3 3.3 3 6.6 3 10 C1.68 9.67 0.36 9.34 -1 9 C-1.09765625 2.84765625 -1.09765625 2.84765625 -1 1 C-0.67 0.67 -0.34 0.34 0 0 Z " fill="#5BC6E9" transform="translate(37,43)"/>
</svg>
